<svg width="153" height="52" viewBox="0 0 153 52" fill="none" xmlns="http://www.w3.org/2000/svg">
<path d="M130.948 52L147.159 19.2731H152.266L136.411 52H130.948ZM137.005 41.5359L125.188 19.2731H131.423L141.339 39.0267L137.005 41.5359Z" fill="black"/>
<path d="M107.851 41.9096C105.555 41.9096 103.457 41.4647 101.557 40.5749C99.6963 39.6851 98.2118 38.386 97.1033 36.6776C96.0344 34.9336 95.5 32.8159 95.5 30.3244C95.5 27.8686 96.074 25.7508 97.2221 23.9712C98.3701 22.156 99.8943 20.7679 101.795 19.807C103.734 18.846 105.852 18.3655 108.148 18.3655C110.445 18.3655 112.384 18.846 113.968 19.807C115.551 20.7324 116.759 21.8357 117.59 23.117L117.234 23.9712L117.768 19.2731H122.875V41.3757H117.353V35.6098L117.946 36.8911C117.788 37.2471 117.432 37.7098 116.878 38.2792C116.363 38.8131 115.65 39.3648 114.74 39.9343C113.869 40.5037 112.859 40.9842 111.711 41.3757C110.563 41.7317 109.277 41.9096 107.851 41.9096ZM109.336 37.7987C110.722 37.7987 111.969 37.5674 113.077 37.1047C114.186 36.642 115.096 36.0013 115.809 35.1827C116.561 34.3285 117.076 33.3141 117.353 32.1396V27.8152C117.036 26.7474 116.482 25.822 115.69 25.039C114.898 24.2204 113.948 23.5975 112.84 23.1704C111.731 22.7077 110.504 22.4764 109.158 22.4764C107.693 22.4764 106.347 22.7967 105.12 23.4373C103.893 24.078 102.903 24.9678 102.151 26.1068C101.438 27.2457 101.082 28.5804 101.082 30.1109C101.082 31.5345 101.458 32.8337 102.21 34.0082C102.962 35.1827 103.972 36.1081 105.239 36.7844C106.505 37.4606 107.871 37.7987 109.336 37.7987Z" fill="black"/>
<path d="M72.0312 41.3757V0.0533447H77.5538V41.3757H72.0312ZM83.492 26.694L94.7746 41.3757H88.302L79.8103 29.4702L83.492 26.694ZM75.8317 34.3285L75.2973 29.577L90.2022 18.7926L93.587 21.4086L75.8317 34.3285Z" fill="black"/>
<path d="M58.3011 41.8028C56.5592 41.8028 54.8569 41.5359 53.1942 41.002C51.5711 40.4325 50.2251 39.5961 49.1562 38.4928L51.4722 35.6098C52.5014 36.4996 53.5505 37.1759 54.6194 37.6386C55.7279 38.0657 56.8166 38.2792 57.8854 38.2792C58.6772 38.2792 59.4096 38.1902 60.0826 38.0123C60.7556 37.8343 61.29 37.5496 61.6859 37.1581C62.1214 36.731 62.3391 36.1615 62.3391 35.4497C62.3391 34.6666 62.0422 34.0438 61.4484 33.5811C60.8941 33.1184 60.1617 32.7447 59.2512 32.4599C58.3803 32.1752 57.45 31.9082 56.4603 31.6591C54.4413 31.054 52.8973 30.2176 51.8285 29.1499C50.7596 28.0821 50.2251 26.783 50.2251 25.2525C50.2251 24.078 50.5418 22.9924 51.1752 21.9959C51.8482 20.9637 52.8181 20.1273 54.085 19.4866C55.3914 18.846 56.9947 18.5256 58.8949 18.5256C60.5972 18.5256 62.1214 18.7214 63.4674 19.1129C64.8134 19.4688 66.0802 20.0739 67.2678 20.9281L65.0707 24.0246C64.3581 23.3484 63.5069 22.8501 62.5172 22.5297C61.5275 22.2094 60.6368 22.0315 59.845 21.9959C59.172 21.9603 58.5188 22.0492 57.8854 22.2628C57.2916 22.4764 56.7968 22.7789 56.4009 23.1704C56.005 23.5619 55.8071 24.0246 55.8071 24.5585C55.8071 25.3059 56.0842 25.911 56.6384 26.3737C57.1926 26.8364 57.9052 27.2101 58.7762 27.4948C59.6867 27.744 60.5774 28.0109 61.4484 28.2957C62.6756 28.616 63.7643 29.0431 64.7144 29.577C65.6645 30.1108 66.4167 30.7693 66.9709 31.5523C67.5647 32.3354 67.8616 33.3141 67.8616 34.4887C67.8616 35.8056 67.5053 37.0335 66.7928 38.1724C66.1198 39.2758 65.0707 40.1656 63.6455 40.8419C62.2599 41.4825 60.4785 41.8028 58.3011 41.8028Z" fill="black"/>
<path d="M39.9 19.2731H45.4226V41.3758H39.9V19.2731ZM39.4844 11.2649C39.4844 10.4819 39.8209 9.82341 40.4939 9.28953C41.2065 8.75565 41.9784 8.48871 42.8098 8.48871C43.6411 8.48871 44.3735 8.75565 45.0069 9.28953C45.6799 9.82341 46.0164 10.4819 46.0164 11.2649C46.0164 12.0835 45.6799 12.7598 45.0069 13.2936C44.3735 13.7919 43.6411 14.0411 42.8098 14.0411C41.9784 14.0411 41.2065 13.7741 40.4939 13.2403C39.8209 12.7064 39.4844 12.0479 39.4844 11.2649Z" fill="black"/>
<path d="M26.0615 19.2732L26.596 25.6797L26.2991 24.8255C26.9325 23.473 27.843 22.3341 29.0306 21.4087C30.2579 20.4477 31.5247 19.7181 32.8311 19.2198C34.1771 18.6859 35.3449 18.4189 36.3346 18.4189L36.0377 23.3306C34.1771 23.2239 32.5342 23.5442 31.109 24.2916C29.7234 25.0391 28.615 26.0356 27.7836 27.2814C26.9919 28.5271 26.596 29.8618 26.596 31.2855V41.3758H21.1328V19.2732H26.0615Z" fill="black"/>
<path d="M4.21613 41.3758V23.7043H0V19.2731H4.21613V9.93018C4.21613 6.7269 5.0079 4.27105 6.59142 2.56263C8.21453 0.854209 10.5898 0 13.7173 0C14.5486 0 15.4592 0.106776 16.4489 0.320328C17.4782 0.533881 18.3689 0.889803 19.1211 1.38809L16.8052 4.96509C16.4489 4.64476 16.053 4.43121 15.6175 4.32444C15.182 4.18207 14.7466 4.11088 14.3111 4.11088C12.8463 4.11088 11.7181 4.55578 10.9263 5.44558C10.1346 6.33539 9.73868 7.84805 9.73868 9.98357V19.2731H17.5177V23.7043H9.73868V41.3758H4.21613Z" fill="black"/>
</svg>
